<svg width="280" height="394" viewBox="0 0 280 394" fill="none" xmlns="http://www.w3.org/2000/svg">
<g opacity="0.5">
<mask id="mask0_17_1310" style="mask-type:alpha" maskUnits="userSpaceOnUse" x="0" y="0" width="280" height="394">
<rect y="394" width="394" height="280" rx="20" transform="rotate(-90 0 394)" fill="#174AFF"/>
</mask>
<g mask="url(#mask0_17_1310)">
<path fill-rule="evenodd" clip-rule="evenodd" d="M-85.1343 126.615C-85.1343 126.339 -84.9104 126.115 -84.6343 126.115L-38.0005 126.115L-38.0005 100.444L-84.6342 100.444C-84.9103 100.444 -85.1342 100.22 -85.1342 99.9442C-85.1342 99.668 -84.9103 99.4442 -84.6342 99.4442L-38.0005 99.4441L-38.0005 73.7732L-84.6342 73.7732C-84.9103 73.7732 -85.1342 73.5494 -85.1342 73.2732C-85.1342 72.9971 -84.9103 72.7732 -84.6342 72.7732L-38.0005 72.7732L-38.0005 47.1027L-84.6342 47.1027C-84.9103 47.1027 -85.1342 46.8789 -85.1342 46.6027C-85.1342 46.3266 -84.9103 46.1027 -84.6342 46.1027L-38.0005 46.1027L-38.0005 20.1984C-38.0005 19.9222 -37.7766 19.6984 -37.5005 19.6984C-37.2244 19.6984 -37.0005 19.9222 -37.0005 20.1984L-37.0005 46.1027L-5.78801 46.1027L-5.78801 20.1984C-5.788 19.9222 -5.56415 19.6984 -5.288 19.6984C-5.01186 19.6984 -4.788 19.9222 -4.78801 20.1984L-4.78801 46.1027L26.4247 46.1027L26.4247 20.1984C26.4247 19.9222 26.6485 19.6984 26.9247 19.6984C27.2008 19.6984 27.4247 19.9222 27.4247 20.1984L27.4247 46.1027L58.6373 46.1027L58.6373 20.1984C58.6373 19.9222 58.8612 19.6984 59.1373 19.6984C59.4135 19.6984 59.6373 19.9222 59.6373 20.1984L59.6373 46.1027L90.8503 46.1027L90.8503 20.1984C90.8503 19.9222 91.0742 19.6984 91.3503 19.6984C91.6265 19.6984 91.8503 19.9222 91.8503 20.1984L91.8503 46.1027L123.063 46.1027L123.063 20.1984C123.063 19.9222 123.287 19.6984 123.563 19.6984C123.839 19.6984 124.063 19.9222 124.063 20.1984L124.063 46.1027L155.276 46.1027L155.276 20.1984C155.276 19.9222 155.499 19.6984 155.776 19.6984C156.052 19.6984 156.276 19.9222 156.276 20.1984L156.276 46.1027L187.488 46.1027L187.488 20.1984C187.488 19.9222 187.712 19.6984 187.988 19.6984C188.264 19.6984 188.488 19.9222 188.488 20.1984L188.488 46.1027L219.701 46.1027L219.701 20.1984C219.701 19.9222 219.925 19.6984 220.201 19.6984C220.477 19.6984 220.701 19.9222 220.701 20.1984L220.701 46.1027L251.914 46.1027L251.914 20.1984C251.914 19.9222 252.138 19.6984 252.414 19.6984C252.69 19.6984 252.914 19.9222 252.914 20.1984L252.914 46.1027L284.127 46.1027L284.127 20.1984C284.127 19.9222 284.351 19.6984 284.627 19.6984C284.903 19.6984 285.127 19.9222 285.127 20.1984L285.127 46.1027L316.34 46.1027L316.34 20.1984C316.34 19.9222 316.563 19.6984 316.84 19.6984C317.116 19.6984 317.34 19.9222 317.34 20.1984L317.34 46.1027L364.642 46.1027C364.918 46.1027 365.142 46.3266 365.142 46.6027C365.142 46.8789 364.918 47.1027 364.642 47.1027L317.34 47.1027L317.34 72.7732L364.642 72.7732C364.918 72.7732 365.142 72.9971 365.142 73.2732C365.142 73.5494 364.918 73.7732 364.642 73.7732L317.34 73.7732L317.34 99.4441L364.642 99.4441C364.918 99.4441 365.142 99.668 365.142 99.9441C365.142 100.22 364.918 100.444 364.642 100.444L317.34 100.444L317.34 126.115L364.642 126.115C364.918 126.115 365.142 126.339 365.142 126.615C365.142 126.891 364.918 127.115 364.642 127.115L317.34 127.115L317.34 152.786L364.642 152.786C364.918 152.786 365.142 153.01 365.142 153.286C365.142 153.562 364.918 153.786 364.642 153.786L317.34 153.786L317.34 179.457L364.642 179.457C364.918 179.457 365.142 179.681 365.142 179.957C365.142 180.233 364.918 180.457 364.642 180.457L317.34 180.457L317.34 206.127L364.642 206.127C364.918 206.127 365.142 206.351 365.142 206.627C365.142 206.903 364.918 207.127 364.642 207.127L317.34 207.127L317.34 232.798L364.642 232.798C364.918 232.798 365.142 233.022 365.142 233.298C365.142 233.574 364.918 233.798 364.642 233.798L317.34 233.798L317.34 259.469L364.642 259.469C364.918 259.469 365.142 259.693 365.142 259.969C365.142 260.245 364.918 260.469 364.642 260.469L317.34 260.469L317.34 286.14L364.642 286.14C364.918 286.14 365.142 286.364 365.142 286.64C365.142 286.916 364.918 287.14 364.642 287.14L317.34 287.14L317.34 312.811L364.642 312.811C364.918 312.811 365.142 313.035 365.142 313.311C365.142 313.587 364.918 313.811 364.642 313.811L317.34 313.811L317.34 339.481L364.642 339.481C364.918 339.481 365.142 339.705 365.142 339.981C365.142 340.258 364.918 340.481 364.642 340.481L317.34 340.481L317.34 348.783C317.34 349.059 317.116 349.283 316.84 349.283C316.563 349.283 316.34 349.059 316.34 348.783L316.34 340.481L285.127 340.481L285.127 348.783C285.127 349.059 284.903 349.283 284.627 349.283C284.351 349.283 284.127 349.059 284.127 348.783L284.127 340.481L252.914 340.481L252.914 348.783C252.914 349.059 252.69 349.283 252.414 349.283C252.138 349.283 251.914 349.059 251.914 348.783L251.914 340.481L220.701 340.481L220.701 348.783C220.701 349.059 220.477 349.283 220.201 349.283C219.925 349.283 219.701 349.059 219.701 348.783L219.701 340.481L188.488 340.481L188.488 348.783C188.488 349.059 188.264 349.283 187.988 349.283C187.712 349.283 187.488 349.059 187.488 348.783L187.488 340.481L156.276 340.481L156.276 348.783C156.276 349.059 156.052 349.283 155.776 349.283C155.499 349.283 155.276 349.059 155.276 348.783L155.276 340.481L124.063 340.481L124.063 348.783C124.063 349.059 123.839 349.283 123.563 349.283C123.287 349.283 123.063 349.059 123.063 348.783L123.063 340.481L91.8503 340.481L91.8503 348.783C91.8503 349.059 91.6265 349.283 91.3503 349.283C91.0742 349.283 90.8503 349.059 90.8503 348.783L90.8503 340.481L59.6373 340.481L59.6373 348.783C59.6373 349.059 59.4135 349.283 59.1373 349.283C58.8612 349.283 58.6373 349.059 58.6373 348.783L58.6373 340.481L27.4247 340.481L27.4247 348.783C27.4247 349.059 27.2008 349.283 26.9247 349.283C26.6485 349.283 26.4247 349.059 26.4247 348.783L26.4247 340.481L-4.78801 340.481L-4.78801 348.783C-4.78801 349.059 -5.01187 349.283 -5.28801 349.283C-5.56416 349.283 -5.78801 349.059 -5.78801 348.783L-5.78801 340.481L-37.0005 340.481L-37.0005 348.783C-37.0005 349.059 -37.2244 349.283 -37.5005 349.283C-37.7766 349.283 -38.0005 349.059 -38.0005 348.783L-38.0005 340.481L-84.6342 340.481C-84.9103 340.481 -85.1342 340.258 -85.1342 339.981C-85.1342 339.705 -84.9103 339.481 -84.6342 339.481L-38.0005 339.481L-38.0005 313.811L-84.6342 313.811C-84.9103 313.811 -85.1342 313.587 -85.1342 313.311C-85.1342 313.035 -84.9103 312.811 -84.6342 312.811L-38.0005 312.811L-38.0005 287.14L-84.6342 287.14C-84.9103 287.14 -85.1342 286.916 -85.1342 286.64C-85.1342 286.364 -84.9103 286.14 -84.6342 286.14L-38.0005 286.14L-38.0005 260.469L-84.6342 260.469C-84.9103 260.469 -85.1342 260.245 -85.1342 259.969C-85.1342 259.693 -84.9103 259.469 -84.6342 259.469L-38.0005 259.469L-38.0005 233.798L-84.6342 233.798C-84.9103 233.798 -85.1342 233.574 -85.1342 233.298C-85.1342 233.022 -84.9103 232.798 -84.6342 232.798L-38.0005 232.798L-38.0005 207.127L-84.6342 207.127C-84.9103 207.127 -85.1342 206.903 -85.1342 206.627C-85.1342 206.351 -84.9103 206.127 -84.6342 206.127L-38.0005 206.127L-38.0005 180.457L-84.6342 180.457C-84.9103 180.457 -85.1342 180.233 -85.1342 179.957C-85.1342 179.681 -84.9103 179.457 -84.6342 179.457L-38.0005 179.457L-38.0005 153.786L-84.6342 153.786C-84.9103 153.786 -85.1342 153.562 -85.1342 153.286C-85.1342 153.01 -84.9103 152.786 -84.6342 152.786L-38.0005 152.786L-38.0005 127.115L-84.6343 127.115C-84.9104 127.115 -85.1343 126.891 -85.1343 126.615ZM316.34 47.1027L285.127 47.1027L285.127 72.7732L316.34 72.7732L316.34 47.1027ZM284.127 47.1027L252.914 47.1027L252.914 72.7732L284.127 72.7732L284.127 47.1027ZM251.914 47.1027L220.701 47.1027L220.701 72.7732L251.914 72.7732L251.914 47.1027ZM219.701 47.1027L188.488 47.1027L188.488 72.7732L219.701 72.7732L219.701 47.1027ZM187.488 47.1027L156.276 47.1027L156.276 72.7732L187.488 72.7732L187.488 47.1027ZM155.276 47.1027L124.063 47.1027L124.063 72.7732L155.276 72.7732L155.276 47.1027ZM123.063 47.1027L91.8503 47.1027L91.8503 72.7732L123.063 72.7732L123.063 47.1027ZM90.8503 47.1027L59.6373 47.1027L59.6373 72.7732L90.8503 72.7732L90.8503 47.1027ZM58.6373 47.1027L27.4247 47.1027L27.4247 72.7732L58.6373 72.7732L58.6373 47.1027ZM26.4247 47.1027L-4.78801 47.1027L-4.78801 72.7732L26.4247 72.7732L26.4247 47.1027ZM-5.78801 47.1027L-37.0005 47.1027L-37.0005 72.7732L-5.78801 72.7732L-5.78801 47.1027ZM-37.0005 126.115L-37.0005 100.444L-5.78801 100.444L-5.78801 126.115L-37.0005 126.115ZM-4.78801 126.115L-4.78801 100.444L26.4247 100.444L26.4247 126.115L-4.78801 126.115ZM-4.78801 99.4441L26.4247 99.4441L26.4247 73.7732L-4.78801 73.7732L-4.78801 99.4441ZM27.4247 126.115L27.4247 100.444L58.6373 100.444L58.6373 126.115L27.4247 126.115ZM27.4247 99.4441L58.6373 99.4441L58.6373 73.7732L27.4247 73.7732L27.4247 99.4441ZM59.6373 126.115L59.6373 100.444L90.8503 100.444L90.8503 126.115L59.6373 126.115ZM59.6373 99.4441L90.8503 99.4441L90.8503 73.7732L59.6373 73.7732L59.6373 99.4441ZM91.8503 126.115L91.8503 100.444L123.063 100.444L123.063 126.115L91.8503 126.115ZM91.8503 99.4441L123.063 99.4441L123.063 73.7732L91.8503 73.7732L91.8503 99.4441ZM124.063 126.115L124.063 100.444L155.276 100.444L155.276 126.115L124.063 126.115ZM124.063 99.4441L155.276 99.4441L155.275 73.7732L124.063 73.7732L124.063 99.4441ZM156.276 126.115L156.276 100.444L187.488 100.444L187.488 126.115L156.276 126.115ZM156.276 99.4441L187.488 99.4441L187.488 73.7732L156.275 73.7732L156.276 99.4441ZM188.488 126.115L188.488 100.444L219.701 100.444L219.701 126.115L188.488 126.115ZM188.488 99.4441L219.701 99.4441L219.701 73.7732L188.488 73.7732L188.488 99.4441ZM220.701 126.115L220.701 100.444L251.914 100.444L251.914 126.115L220.701 126.115ZM220.701 99.4441L251.914 99.4441L251.914 73.7732L220.701 73.7732L220.701 99.4441ZM252.914 126.115L252.914 100.444L284.127 100.444L284.127 126.115L252.914 126.115ZM252.914 99.4441L284.127 99.4441L284.127 73.7732L252.914 73.7732L252.914 99.4441ZM285.127 126.115L285.127 100.444L316.34 100.444L316.34 126.115L285.127 126.115ZM285.127 99.4441L316.34 99.4441L316.34 73.7732L285.127 73.7732L285.127 99.4441ZM-37.0005 99.4441L-5.78801 99.4441L-5.78801 73.7732L-37.0005 73.7732L-37.0005 99.4441ZM-37.0005 153.786L-37.0005 179.457L-5.78801 179.457L-5.78801 153.786L-37.0005 153.786ZM-5.78801 152.786L-37.0005 152.786L-37.0005 127.115L-5.78801 127.115L-5.78801 152.786ZM-4.78801 153.786L-4.78801 179.457L26.4247 179.457L26.4247 153.786L-4.78801 153.786ZM26.4247 152.786L-4.78801 152.786L-4.78801 127.115L26.4247 127.115L26.4247 152.786ZM27.4247 153.786L27.4247 179.457L58.6373 179.457L58.6373 153.786L27.4247 153.786ZM58.6373 152.786L27.4247 152.786L27.4247 127.115L58.6373 127.115L58.6373 152.786ZM59.6373 153.786L59.6373 179.457L90.8503 179.457L90.8503 153.786L59.6373 153.786ZM90.8503 152.786L59.6373 152.786L59.6373 127.115L90.8503 127.115L90.8503 152.786ZM91.8503 153.786L91.8503 179.457L123.063 179.457L123.063 153.786L91.8503 153.786ZM123.063 152.786L91.8503 152.786L91.8503 127.115L123.063 127.115L123.063 152.786ZM124.063 153.786L124.063 179.457L155.276 179.457L155.276 153.786L124.063 153.786ZM155.276 152.786L124.063 152.786L124.063 127.115L155.276 127.115L155.276 152.786ZM156.276 153.786L156.276 179.457L187.488 179.457L187.488 153.786L156.276 153.786ZM187.488 152.786L156.276 152.786L156.276 127.115L187.488 127.115L187.488 152.786ZM188.488 153.786L188.488 179.457L219.701 179.457L219.701 153.786L188.488 153.786ZM219.701 152.786L188.488 152.786L188.488 127.115L219.701 127.115L219.701 152.786ZM220.701 153.786L220.701 179.457L251.914 179.457L251.914 153.786L220.701 153.786ZM251.914 152.786L220.701 152.786L220.701 127.115L251.914 127.115L251.914 152.786ZM252.914 153.786L252.914 179.457L284.127 179.457L284.127 153.786L252.914 153.786ZM284.127 152.786L252.914 152.786L252.914 127.115L284.127 127.115L284.127 152.786ZM285.127 153.786L285.127 179.457L316.34 179.457L316.34 153.786L285.127 153.786ZM316.34 152.786L285.127 152.786L285.127 127.115L316.34 127.115L316.34 152.786ZM316.34 180.457L316.34 206.127L285.127 206.127L285.127 180.457L316.34 180.457ZM284.127 180.457L284.127 206.127L252.914 206.127L252.914 180.457L284.127 180.457ZM284.127 207.127L252.914 207.127L252.914 232.798L284.127 232.798L284.127 207.127ZM251.914 180.457L251.914 206.127L220.701 206.127L220.701 180.457L251.914 180.457ZM251.914 207.127L220.701 207.127L220.701 232.798L251.914 232.798L251.914 207.127ZM219.701 180.457L219.701 206.127L188.488 206.127L188.488 180.457L219.701 180.457ZM219.701 207.127L188.488 207.127L188.488 232.798L219.701 232.798L219.701 207.127ZM187.488 180.457L187.488 206.127L156.276 206.127L156.276 180.457L187.488 180.457ZM187.488 207.127L156.276 207.127L156.276 232.798L187.488 232.798L187.488 207.127ZM155.276 180.457L155.276 206.127L124.063 206.127L124.063 180.457L155.276 180.457ZM155.276 207.127L124.063 207.127L124.063 232.798L155.276 232.798L155.276 207.127ZM123.063 180.457L123.063 206.127L91.8503 206.127L91.8503 180.457L123.063 180.457ZM123.063 207.127L91.8503 207.127L91.8503 232.798L123.063 232.798L123.063 207.127ZM90.8503 180.457L90.8503 206.127L59.6373 206.127L59.6373 180.457L90.8503 180.457ZM90.8503 207.127L59.6373 207.127L59.6373 232.798L90.8503 232.798L90.8503 207.127ZM58.6373 180.457L58.6373 206.127L27.4247 206.127L27.4247 180.457L58.6373 180.457ZM58.6373 207.127L27.4247 207.127L27.4247 232.798L58.6373 232.798L58.6373 207.127ZM26.4247 180.457L26.4247 206.127L-4.78802 206.127L-4.78802 180.457L26.4247 180.457ZM26.4247 207.127L-4.78802 207.127L-4.78802 232.798L26.4247 232.798L26.4247 207.127ZM-5.78802 180.457L-5.78802 206.127L-37.0005 206.127L-37.0005 180.457L-5.78802 180.457ZM-5.78802 207.127L-37.0005 207.127L-37.0005 232.798L-5.78802 232.798L-5.78802 207.127ZM316.34 207.127L285.127 207.127L285.127 232.798L316.34 232.798L316.34 207.127ZM-37.0005 260.469L-37.0005 286.14L-5.78801 286.14L-5.78801 260.469L-37.0005 260.469ZM-5.78801 259.469L-37.0005 259.469L-37.0005 233.798L-5.78802 233.798L-5.78801 259.469ZM-4.78801 260.469L-4.78801 286.14L26.4247 286.14L26.4247 260.469L-4.78801 260.469ZM26.4247 259.469L-4.78801 259.469L-4.78802 233.798L26.4247 233.798L26.4247 259.469ZM27.4247 260.469L27.4247 286.14L58.6373 286.14L58.6373 260.469L27.4247 260.469ZM58.6373 259.469L27.4247 259.469L27.4247 233.798L58.6373 233.798L58.6373 259.469ZM59.6373 260.469L59.6373 286.14L90.8503 286.14L90.8503 260.469L59.6373 260.469ZM90.8503 259.469L59.6373 259.469L59.6373 233.798L90.8503 233.798L90.8503 259.469ZM91.8503 260.469L91.8503 286.14L123.063 286.14L123.063 260.469L91.8503 260.469ZM123.063 259.469L91.8503 259.469L91.8503 233.798L123.063 233.798L123.063 259.469ZM124.063 260.469L124.063 286.14L155.276 286.14L155.276 260.469L124.063 260.469ZM155.276 259.469L124.063 259.469L124.063 233.798L155.276 233.798L155.276 259.469ZM156.276 260.469L156.276 286.14L187.488 286.14L187.488 260.469L156.276 260.469ZM187.488 259.469L156.276 259.469L156.276 233.798L187.488 233.798L187.488 259.469ZM188.488 260.469L188.488 286.14L219.701 286.14L219.701 260.469L188.488 260.469ZM219.701 259.469L188.488 259.469L188.488 233.798L219.701 233.798L219.701 259.469ZM220.701 260.469L220.701 286.14L251.914 286.14L251.914 260.469L220.701 260.469ZM251.914 259.469L220.701 259.469L220.701 233.798L251.914 233.798L251.914 259.469ZM252.914 260.469L252.914 286.14L284.127 286.14L284.127 260.469L252.914 260.469ZM284.127 259.469L252.914 259.469L252.914 233.798L284.127 233.798L284.127 259.469ZM285.127 260.469L285.127 286.14L316.34 286.14L316.34 260.469L285.127 260.469ZM316.34 259.469L285.127 259.469L285.127 233.798L316.34 233.798L316.34 259.469ZM316.34 287.14L316.34 312.811L285.127 312.811L285.127 287.14L316.34 287.14ZM284.127 287.14L284.127 312.811L252.914 312.811L252.914 287.14L284.127 287.14ZM284.127 313.811L252.914 313.811L252.914 339.481L284.127 339.481L284.127 313.811ZM251.914 287.14L251.914 312.811L220.701 312.811L220.701 287.14L251.914 287.14ZM251.914 313.811L220.701 313.811L220.701 339.481L251.914 339.481L251.914 313.811ZM219.701 287.14L219.701 312.811L188.488 312.811L188.488 287.14L219.701 287.14ZM219.701 313.811L188.488 313.811L188.488 339.481L219.701 339.481L219.701 313.811ZM187.488 287.14L187.488 312.811L156.276 312.811L156.276 287.14L187.488 287.14ZM187.488 313.811L156.276 313.811L156.276 339.481L187.488 339.481L187.488 313.811ZM155.276 287.14L155.276 312.811L124.063 312.811L124.063 287.14L155.276 287.14ZM155.276 313.811L124.063 313.811L124.063 339.481L155.276 339.481L155.276 313.811ZM123.063 287.14L123.063 312.811L91.8503 312.811L91.8503 287.14L123.063 287.14ZM123.063 313.811L91.8503 313.811L91.8503 339.481L123.063 339.481L123.063 313.811ZM90.8503 287.14L90.8503 312.811L59.6373 312.811L59.6373 287.14L90.8503 287.14ZM90.8503 313.811L59.6373 313.811L59.6373 339.481L90.8503 339.481L90.8503 313.811ZM58.6373 287.14L58.6373 312.811L27.4247 312.811L27.4247 287.14L58.6373 287.14ZM58.6373 313.811L27.4247 313.811L27.4247 339.481L58.6373 339.481L58.6373 313.811ZM26.4247 287.14L26.4247 312.811L-4.78801 312.811L-4.78801 287.14L26.4247 287.14ZM26.4247 313.811L-4.78801 313.811L-4.78801 339.481L26.4247 339.481L26.4247 313.811ZM-5.78801 287.14L-5.78801 312.811L-37.0005 312.811L-37.0005 287.14L-5.78801 287.14ZM-5.78801 313.811L-37.0005 313.811L-37.0005 339.481L-5.78801 339.481L-5.78801 313.811ZM316.34 313.811L285.127 313.811L285.127 339.481L316.34 339.481L316.34 313.811Z" fill="url(#paint0_radial_17_1310)" fill-opacity="0.6"/>
</g>
</g>
<defs>
<radialGradient id="paint0_radial_17_1310" cx="0" cy="0" r="1" gradientUnits="userSpaceOnUse" gradientTransform="translate(140.004 184.491) scale(225.138 164.792)">
<stop stop-color="white"/>
<stop offset="1" stop-color="#B3FFFF" stop-opacity="0"/>
<stop offset="1" stop-color="white" stop-opacity="0"/>
</radialGradient>
</defs>
</svg>
