<svg width="1200" height="567" viewBox="0 0 1200 567" fill="none" xmlns="http://www.w3.org/2000/svg">
<mask id="mask0_17_918" style="mask-type:alpha" maskUnits="userSpaceOnUse" x="0" y="0" width="1200" height="567">
<rect y="0.5" width="1200" height="566" rx="20" fill="#174AFF"/>
</mask>
<g mask="url(#mask0_17_918)">
<path fill-rule="evenodd" clip-rule="evenodd" d="M765.78 -171.082C766.056 -171.082 766.28 -170.858 766.28 -170.582L766.28 -75.8042L841.665 -75.8042L841.665 -170.582C841.665 -170.858 841.889 -171.082 842.165 -171.082C842.441 -171.082 842.665 -170.858 842.665 -170.582L842.665 -75.8042L918.049 -75.8042L918.049 -170.582C918.049 -170.858 918.273 -171.082 918.549 -171.082C918.825 -171.082 919.049 -170.858 919.049 -170.582L919.049 -75.8042L994.433 -75.8042L994.433 -170.582C994.433 -170.858 994.657 -171.082 994.933 -171.082C995.209 -171.082 995.433 -170.858 995.433 -170.582L995.433 -75.8042L1070.55 -75.8042C1070.83 -75.8042 1071.05 -75.5804 1071.05 -75.3042C1071.05 -75.0281 1070.83 -74.8042 1070.55 -74.8042L995.433 -74.8042L995.433 -10.6888L1070.55 -10.6888C1070.83 -10.6888 1071.05 -10.4649 1071.05 -10.1888C1071.05 -9.91265 1070.83 -9.68878 1070.55 -9.68878L995.433 -9.68878L995.433 54.4267L1070.55 54.4267C1070.83 54.4267 1071.05 54.6506 1071.05 54.9267C1071.05 55.2029 1070.83 55.4267 1070.55 55.4267L995.433 55.4267L995.433 119.543L1070.55 119.543C1070.83 119.543 1071.05 119.767 1071.05 120.043C1071.05 120.319 1070.83 120.543 1070.55 120.543L995.433 120.543L995.433 184.659L1070.55 184.659C1070.83 184.659 1071.05 184.882 1071.05 185.159C1071.05 185.435 1070.83 185.659 1070.55 185.659L995.433 185.659L995.433 249.775L1070.55 249.775C1070.83 249.775 1071.05 249.998 1071.05 250.275C1071.05 250.551 1070.83 250.775 1070.55 250.775L995.433 250.775L995.433 314.89L1070.55 314.89C1070.83 314.89 1071.05 315.113 1071.05 315.39C1071.05 315.666 1070.83 315.89 1070.55 315.89L995.433 315.89L995.433 380.006L1070.55 380.006C1070.83 380.006 1071.05 380.229 1071.05 380.506C1071.05 380.782 1070.83 381.006 1070.55 381.006L995.433 381.006L995.433 445.121L1070.55 445.121C1070.83 445.121 1071.05 445.345 1071.05 445.621C1071.05 445.898 1070.83 446.121 1070.55 446.121L995.433 446.121L995.433 510.237L1070.55 510.237C1070.83 510.237 1071.05 510.461 1071.05 510.737C1071.05 511.013 1070.83 511.237 1070.55 511.237L995.433 511.237L995.433 575.353L1070.55 575.353C1070.83 575.353 1071.05 575.577 1071.05 575.853C1071.05 576.129 1070.83 576.353 1070.55 576.353L995.433 576.353L995.433 640.469L1070.55 640.469C1070.83 640.469 1071.05 640.693 1071.05 640.969C1071.05 641.245 1070.83 641.469 1070.55 641.469L995.433 641.469L995.433 737.598C995.433 737.875 995.209 738.098 994.933 738.098C994.657 738.098 994.433 737.875 994.433 737.598L994.433 641.469L919.049 641.469L919.049 737.598C919.049 737.875 918.825 738.098 918.549 738.098C918.273 738.098 918.049 737.875 918.049 737.598L918.049 641.469L842.665 641.469L842.665 737.598C842.665 737.875 842.441 738.098 842.165 738.098C841.889 738.098 841.665 737.875 841.665 737.598L841.665 641.469L766.28 641.469L766.28 737.598C766.28 737.874 766.056 738.098 765.78 738.098C765.504 738.098 765.28 737.874 765.28 737.598L765.28 641.469L689.896 641.469L689.896 737.598C689.896 737.875 689.672 738.098 689.396 738.098C689.12 738.098 688.896 737.875 688.896 737.598L688.896 641.469L613.512 641.469L613.512 737.598C613.512 737.875 613.288 738.098 613.012 738.098C612.736 738.098 612.512 737.875 612.512 737.598L612.512 641.469L537.128 641.469L537.128 737.598C537.128 737.875 536.904 738.098 536.628 738.098C536.352 738.098 536.128 737.875 536.128 737.598L536.128 641.469L460.744 641.469L460.744 737.598C460.744 737.875 460.52 738.098 460.244 738.098C459.968 738.098 459.744 737.875 459.744 737.598L459.744 641.469L384.36 641.469L384.36 737.598C384.36 737.875 384.136 738.098 383.86 738.098C383.583 738.098 383.36 737.875 383.36 737.598L383.36 641.469L307.975 641.469L307.975 737.598C307.975 737.875 307.752 738.098 307.475 738.098C307.199 738.098 306.975 737.875 306.975 737.598L306.975 641.469L231.591 641.469L231.591 737.598C231.591 737.875 231.367 738.098 231.091 738.098C230.815 738.098 230.591 737.875 230.591 737.598L230.591 641.469L155.207 641.469L155.207 737.598C155.207 737.875 154.983 738.098 154.707 738.098C154.431 738.098 154.207 737.875 154.207 737.598L154.207 641.469L129.5 641.469C129.224 641.469 129 641.245 129 640.969C129 640.693 129.224 640.469 129.5 640.469L154.207 640.469L154.207 576.353L129.5 576.353C129.224 576.353 129 576.129 129 575.853C129 575.577 129.224 575.353 129.5 575.353L154.207 575.353L154.207 511.237L129.5 511.237C129.224 511.237 129 511.013 129 510.737C129 510.461 129.224 510.237 129.5 510.237L154.207 510.237L154.207 446.121L129.5 446.121C129.224 446.121 129 445.897 129 445.621C129 445.345 129.224 445.121 129.5 445.121L154.207 445.121L154.207 381.006L129.5 381.006C129.224 381.006 129 380.782 129 380.506C129 380.229 129.224 380.006 129.5 380.006L154.207 380.006L154.207 315.89L129.5 315.89C129.224 315.89 129 315.666 129 315.39C129 315.113 129.224 314.89 129.5 314.89L154.207 314.89L154.207 250.774L129.5 250.774C129.224 250.774 129 250.551 129 250.274C129 249.998 129.224 249.774 129.5 249.774L154.207 249.774L154.207 185.658L129.5 185.658C129.224 185.658 129 185.435 129 185.158C129 184.882 129.224 184.658 129.5 184.658L154.207 184.658L154.207 120.543L129.5 120.543C129.224 120.543 129 120.319 129 120.043C129 119.767 129.224 119.543 129.5 119.543L154.207 119.543L154.207 55.4267L129.5 55.4267C129.224 55.4267 129 55.2028 129 54.9267C129 54.6505 129.224 54.4267 129.5 54.4267L154.207 54.4267L154.207 -9.68883L129.5 -9.68883C129.224 -9.68883 129 -9.91269 129 -10.1888C129 -10.465 129.224 -10.6888 129.5 -10.6888L154.207 -10.6888L154.207 -74.8043L129.5 -74.8043C129.224 -74.8043 129 -75.0281 129 -75.3043C129 -75.5804 129.224 -75.8043 129.5 -75.8043L154.207 -75.8043L154.207 -170.582C154.207 -170.858 154.431 -171.082 154.707 -171.082C154.983 -171.082 155.207 -170.858 155.207 -170.582L155.207 -75.8043L230.591 -75.8043L230.591 -170.582C230.591 -170.858 230.815 -171.082 231.091 -171.082C231.367 -171.082 231.591 -170.858 231.591 -170.582L231.591 -75.8043L306.975 -75.8043L306.975 -170.582C306.975 -170.858 307.199 -171.082 307.475 -171.082C307.752 -171.082 307.975 -170.858 307.975 -170.582L307.975 -75.8043L383.36 -75.8043L383.36 -170.582C383.36 -170.858 383.584 -171.082 383.86 -171.082C384.136 -171.082 384.36 -170.858 384.36 -170.582L384.36 -75.8042L459.744 -75.8042L459.744 -170.582C459.744 -170.858 459.968 -171.082 460.244 -171.082C460.52 -171.082 460.744 -170.858 460.744 -170.582L460.744 -75.8042L536.128 -75.8042L536.128 -170.582C536.128 -170.858 536.352 -171.082 536.628 -171.082C536.904 -171.082 537.128 -170.858 537.128 -170.582L537.128 -75.8042L612.512 -75.8042L612.512 -170.582C612.512 -170.858 612.736 -171.082 613.012 -171.082C613.288 -171.082 613.512 -170.858 613.512 -170.582L613.512 -75.8042L688.896 -75.8042L688.896 -170.582C688.896 -170.858 689.12 -171.082 689.396 -171.082C689.672 -171.082 689.896 -170.858 689.896 -170.582L689.896 -75.8042L765.28 -75.8042L765.28 -170.582C765.28 -170.858 765.504 -171.082 765.78 -171.082ZM994.433 640.469L994.433 576.353L919.049 576.353L919.049 640.469L994.433 640.469ZM994.433 575.353L994.433 511.237L919.049 511.237L919.049 575.353L994.433 575.353ZM994.433 510.237L994.433 446.121L919.049 446.121L919.049 510.237L994.433 510.237ZM994.433 445.121L994.433 381.006L919.049 381.006L919.049 445.121L994.433 445.121ZM994.433 380.006L994.433 315.89L919.049 315.89L919.049 380.006L994.433 380.006ZM994.433 314.89L994.433 250.775L919.049 250.775L919.049 314.89L994.433 314.89ZM994.433 249.775L994.433 185.659L919.049 185.659L919.049 249.775L994.433 249.775ZM994.433 184.659L994.433 120.543L919.049 120.543L919.049 184.659L994.433 184.659ZM994.433 119.543L994.433 55.4267L919.049 55.4267L919.049 119.543L994.433 119.543ZM994.433 54.4267L994.433 -9.68878L919.049 -9.68878L919.049 54.4267L994.433 54.4267ZM994.433 -10.6888L994.433 -74.8042L919.049 -74.8042L919.049 -10.6888L994.433 -10.6888ZM766.28 -74.8042L841.665 -74.8042L841.665 -10.6888L766.28 -10.6888L766.28 -74.8042ZM766.28 -9.6888L841.665 -9.6888L841.665 54.4267L766.28 54.4267L766.28 -9.6888ZM842.665 -9.6888L842.665 54.4267L918.049 54.4267L918.049 -9.6888L842.665 -9.6888ZM766.28 55.4267L841.665 55.4267L841.665 119.543L766.28 119.543L766.28 55.4267ZM842.665 55.4267L842.665 119.543L918.049 119.543L918.049 55.4267L842.665 55.4267ZM766.28 120.543L841.665 120.543L841.665 184.658L766.28 184.658L766.28 120.543ZM842.665 120.543L842.665 184.658L918.049 184.658L918.049 120.543L842.665 120.543ZM766.28 185.658L841.665 185.658L841.665 249.774L766.28 249.774L766.28 185.658ZM842.665 185.658L842.665 249.774L918.049 249.774L918.049 185.658L842.665 185.658ZM766.28 250.774L841.665 250.774L841.665 314.89L766.28 314.89L766.28 250.774ZM842.665 250.774L842.665 314.89L918.049 314.89L918.049 250.774L842.665 250.774ZM766.28 315.89L841.665 315.89L841.665 380.006L766.28 380.006L766.28 315.89ZM842.665 315.89L842.665 380.006L918.049 380.006L918.049 315.89L842.665 315.89ZM766.28 381.006L841.665 381.006L841.665 445.121L766.28 445.121L766.28 381.006ZM842.665 381.006L842.665 445.121L918.049 445.121L918.049 381.006L842.665 381.006ZM766.28 446.121L841.665 446.121L841.665 510.237L766.28 510.237L766.28 446.121ZM842.665 446.121L842.665 510.237L918.049 510.237L918.049 446.121L842.665 446.121ZM766.28 511.237L841.665 511.237L841.665 575.353L766.28 575.353L766.28 511.237ZM842.665 511.237L842.665 575.353L918.049 575.353L918.049 511.237L842.665 511.237ZM766.28 576.353L841.665 576.353L841.665 640.469L766.28 640.469L766.28 576.353ZM842.665 576.353L842.665 640.469L918.049 640.469L918.049 576.353L842.665 576.353ZM842.665 -74.8042L842.665 -10.6888L918.049 -10.6888L918.049 -74.8042L842.665 -74.8042ZM688.896 -74.8042L613.512 -74.8042L613.512 -10.6888L688.896 -10.6888L688.896 -74.8042ZM689.896 -10.6888L689.896 -74.8042L765.28 -74.8042L765.28 -10.6888L689.896 -10.6888ZM688.896 -9.6888L613.512 -9.6888L613.512 54.4267L688.896 54.4267L688.896 -9.6888ZM689.896 54.4267L689.896 -9.6888L765.28 -9.6888L765.28 54.4267L689.896 54.4267ZM688.896 55.4267L613.512 55.4267L613.512 119.543L688.896 119.543L688.896 55.4267ZM689.896 119.543L689.896 55.4267L765.28 55.4267L765.28 119.543L689.896 119.543ZM688.896 120.543L613.512 120.543L613.512 184.658L688.896 184.658L688.896 120.543ZM689.896 184.658L689.896 120.543L765.28 120.543L765.28 184.658L689.896 184.658ZM688.896 185.658L613.512 185.658L613.512 249.774L688.896 249.774L688.896 185.658ZM689.896 249.774L689.896 185.658L765.28 185.658L765.28 249.774L689.896 249.774ZM688.896 250.774L613.512 250.774L613.512 314.89L688.896 314.89L688.896 250.774ZM689.896 314.89L689.896 250.774L765.28 250.774L765.28 314.89L689.896 314.89ZM688.896 315.89L613.512 315.89L613.512 380.006L688.896 380.006L688.896 315.89ZM689.896 380.006L689.896 315.89L765.28 315.89L765.28 380.006L689.896 380.006ZM688.896 381.006L613.512 381.006L613.512 445.121L688.896 445.121L688.896 381.006ZM689.896 445.121L689.896 381.006L765.28 381.006L765.28 445.121L689.896 445.121ZM688.896 446.121L613.512 446.121L613.512 510.237L688.896 510.237L688.896 446.121ZM689.896 510.237L689.896 446.121L765.28 446.121L765.28 510.237L689.896 510.237ZM688.896 511.237L613.512 511.237L613.512 575.353L688.896 575.353L688.896 511.237ZM689.896 575.353L689.896 511.237L765.28 511.237L765.28 575.353L689.896 575.353ZM688.896 576.353L613.512 576.353L613.512 640.469L688.896 640.469L688.896 576.353ZM689.896 640.469L689.896 576.353L765.28 576.353L765.28 640.469L689.896 640.469ZM612.512 640.469L537.128 640.469L537.128 576.353L612.512 576.353L612.512 640.469ZM612.512 575.353L537.128 575.353L537.128 511.237L612.512 511.237L612.512 575.353ZM536.128 575.353L536.128 511.237L460.744 511.237L460.744 575.353L536.128 575.353ZM612.512 510.237L537.128 510.237L537.128 446.121L612.512 446.121L612.512 510.237ZM536.128 510.237L536.128 446.121L460.744 446.121L460.744 510.237L536.128 510.237ZM612.512 445.121L537.128 445.121L537.128 381.006L612.512 381.006L612.512 445.121ZM536.128 445.121L536.128 381.006L460.744 381.006L460.744 445.121L536.128 445.121ZM612.512 380.006L537.128 380.006L537.128 315.89L612.512 315.89L612.512 380.006ZM536.128 380.006L536.128 315.89L460.744 315.89L460.744 380.006L536.128 380.006ZM612.512 314.89L537.128 314.89L537.128 250.774L612.512 250.774L612.512 314.89ZM536.128 314.89L536.128 250.774L460.744 250.774L460.744 314.89L536.128 314.89ZM612.512 249.774L537.128 249.774L537.128 185.658L612.512 185.658L612.512 249.774ZM536.128 249.774L536.128 185.658L460.744 185.658L460.744 249.774L536.128 249.774ZM612.512 184.658L537.128 184.658L537.128 120.543L612.512 120.543L612.512 184.658ZM536.128 184.658L536.128 120.543L460.744 120.543L460.744 184.658L536.128 184.658ZM612.512 119.543L537.128 119.543L537.128 55.4267L612.512 55.4267L612.512 119.543ZM536.128 119.543L536.128 55.4267L460.744 55.4267L460.744 119.543L536.128 119.543ZM612.512 54.4267L537.128 54.4267L537.128 -9.68881L612.512 -9.68881L612.512 54.4267ZM536.128 54.4267L536.128 -9.68881L460.744 -9.68881L460.744 54.4267L536.128 54.4267ZM612.512 -10.6888L537.128 -10.6888L537.128 -74.8042L612.512 -74.8042L612.512 -10.6888ZM536.128 -10.6888L536.128 -74.8042L460.744 -74.8042L460.744 -10.6888L536.128 -10.6888ZM536.128 640.469L536.128 576.353L460.744 576.353L460.744 640.469L536.128 640.469ZM383.36 -74.8043L307.975 -74.8043L307.975 -10.6888L383.36 -10.6888L383.36 -74.8043ZM384.36 -10.6888L384.36 -74.8042L459.744 -74.8042L459.744 -10.6888L384.36 -10.6888ZM383.36 -9.68881L307.975 -9.68881L307.975 54.4267L383.36 54.4267L383.36 -9.68881ZM384.36 54.4267L384.36 -9.68881L459.744 -9.68881L459.744 54.4267L384.36 54.4267ZM383.36 55.4267L307.975 55.4267L307.975 119.543L383.36 119.543L383.36 55.4267ZM384.36 119.543L384.36 55.4267L459.744 55.4267L459.744 119.543L384.36 119.543ZM383.36 120.543L307.975 120.543L307.975 184.658L383.36 184.658L383.36 120.543ZM384.36 184.658L384.36 120.543L459.744 120.543L459.744 184.658L384.36 184.658ZM383.36 185.658L307.975 185.658L307.975 249.774L383.36 249.774L383.36 185.658ZM384.36 249.774L384.36 185.658L459.744 185.658L459.744 249.774L384.36 249.774ZM383.36 250.774L307.975 250.774L307.975 314.89L383.36 314.89L383.36 250.774ZM384.36 314.89L384.36 250.774L459.744 250.774L459.744 314.89L384.36 314.89ZM383.36 315.89L307.975 315.89L307.975 380.006L383.36 380.006L383.36 315.89ZM384.36 380.006L384.36 315.89L459.744 315.89L459.744 380.006L384.36 380.006ZM383.36 381.006L307.975 381.006L307.975 445.121L383.36 445.121L383.36 381.006ZM384.36 445.121L384.36 381.006L459.744 381.006L459.744 445.121L384.36 445.121ZM383.36 446.121L307.975 446.121L307.975 510.237L383.36 510.237L383.36 446.121ZM384.36 510.237L384.36 446.121L459.744 446.121L459.744 510.237L384.36 510.237ZM383.36 511.237L307.975 511.237L307.975 575.353L383.36 575.353L383.36 511.237ZM384.36 575.353L384.36 511.237L459.744 511.237L459.744 575.353L384.36 575.353ZM383.36 576.353L307.975 576.353L307.975 640.469L383.36 640.469L383.36 576.353ZM384.36 640.469L384.36 576.353L459.744 576.353L459.744 640.469L384.36 640.469ZM306.975 640.469L231.591 640.469L231.591 576.353L306.975 576.353L306.975 640.469ZM306.975 575.353L231.591 575.353L231.591 511.237L306.975 511.237L306.975 575.353ZM230.591 575.353L230.591 511.237L155.207 511.237L155.207 575.353L230.591 575.353ZM306.975 510.237L231.591 510.237L231.591 446.121L306.975 446.121L306.975 510.237ZM230.591 510.237L230.591 446.121L155.207 446.121L155.207 510.237L230.591 510.237ZM306.975 445.121L231.591 445.121L231.591 381.006L306.975 381.006L306.975 445.121ZM230.591 445.121L230.591 381.006L155.207 381.006L155.207 445.121L230.591 445.121ZM306.975 380.006L231.591 380.006L231.591 315.89L306.975 315.89L306.975 380.006ZM230.591 380.006L230.591 315.89L155.207 315.89L155.207 380.006L230.591 380.006ZM306.975 314.89L231.591 314.89L231.591 250.774L306.975 250.774L306.975 314.89ZM230.591 314.89L230.591 250.774L155.207 250.774L155.207 314.89L230.591 314.89ZM306.975 249.774L231.591 249.774L231.591 185.658L306.975 185.658L306.975 249.774ZM230.591 249.774L230.591 185.658L155.207 185.658L155.207 249.774L230.591 249.774ZM306.975 184.658L231.591 184.658L231.591 120.543L306.975 120.543L306.975 184.658ZM230.591 184.658L230.591 120.543L155.207 120.543L155.207 184.658L230.591 184.658ZM306.975 119.543L231.591 119.543L231.591 55.4267L306.975 55.4267L306.975 119.543ZM230.591 119.543L230.591 55.4267L155.207 55.4267L155.207 119.543L230.591 119.543ZM306.975 54.4267L231.591 54.4267L231.591 -9.68883L306.975 -9.68883L306.975 54.4267ZM230.591 54.4267L230.591 -9.68883L155.207 -9.68883L155.207 54.4267L230.591 54.4267ZM306.975 -10.6888L231.591 -10.6888L231.591 -74.8043L306.975 -74.8043L306.975 -10.6888ZM230.591 -10.6888L230.591 -74.8043L155.207 -74.8043L155.207 -10.6888L230.591 -10.6888ZM230.591 640.469L230.591 576.353L155.207 576.353L155.207 640.469L230.591 640.469Z" fill="url(#paint0_radial_17_918)" fill-opacity="0.6"/>
</g>
<defs>
<radialGradient id="paint0_radial_17_918" cx="0" cy="0" r="1" gradientUnits="userSpaceOnUse" gradientTransform="translate(600.027 283.508) rotate(90) scale(454.59 471.027)">
<stop stop-color="white"/>
<stop offset="1" stop-color="#B3FFFF" stop-opacity="0"/>
<stop offset="1" stop-color="white" stop-opacity="0"/>
</radialGradient>
</defs>
</svg>
